<svg width="21" height="21" viewBox="0 0 21 21" fill="none" xmlns="http://www.w3.org/2000/svg">
<g clip-path="url(#clip0_316_43165)">
<path d="M5.47741 5.14658H6.75553C6.85595 5.14658 6.93812 5.06441 6.93812 4.96399C6.93812 4.31808 7.07278 3.74977 7.3284 3.28645C7.57033 2.84367 7.92182 2.49219 8.3646 2.25026C8.8302 1.99691 9.39623 1.85997 10.0421 1.85997H10.4073C11.0532 1.85997 11.6215 1.99463 12.0849 2.25026C12.5276 2.49219 12.8791 2.84367 13.121 3.28645C13.3744 3.75205 13.5113 4.31808 13.5113 4.96399C13.5113 5.06441 13.5935 5.14658 13.6939 5.14658H14.972C15.0725 5.14658 15.1546 5.06441 15.1546 4.96399C15.1546 4.05104 14.9538 3.21341 14.5635 2.49675C14.1755 1.7824 13.5889 1.19577 12.8746 0.8078C12.1579 0.417515 11.3203 0.216667 10.4073 0.216667H10.0421C9.12919 0.216667 8.29156 0.417515 7.5749 0.8078C6.86055 1.19577 6.27392 1.7824 5.88595 2.49675C5.49566 3.21341 5.29482 4.05104 5.29482 4.96399C5.29482 5.06441 5.37698 5.14658 5.47741 5.14658Z" fill="white"/>
<path d="M19.9931 10.4375H16.6152V8.15514C18.368 8.15514 19.7877 6.73551 19.7877 4.98265C19.7877 4.88223 19.7055 4.80006 19.6051 4.80006H18.2357C18.1352 4.80006 18.0531 4.88223 18.0531 4.98265C18.0531 5.364 17.9016 5.72974 17.6319 5.99939C17.3623 6.26905 16.9965 6.42054 16.6152 6.42054H3.83393C3.45258 6.42054 3.08684 6.26905 2.81719 5.99939C2.54753 5.72974 2.39604 5.364 2.39604 4.98265C2.39604 4.88223 2.31387 4.80006 2.21345 4.80006H0.844029C0.743605 4.80006 0.66144 4.88223 0.66144 4.98265C0.66144 6.73551 2.08107 8.15514 3.83393 8.15514V10.4375H0.456027C0.355603 10.4375 0.273438 10.5197 0.273438 10.6201V11.8982C0.273438 11.9986 0.355603 12.0808 0.456027 12.0808H3.83393V14.2719C3.83393 14.4202 3.83849 14.5686 3.84991 14.7124C2.2842 15.3811 1.18638 16.9354 1.18638 18.7453C1.18638 18.8457 1.26855 18.9279 1.36897 18.9279H2.6471C2.74752 18.9279 2.82969 18.8457 2.82969 18.7453C2.82969 17.7365 3.37517 16.8532 4.18998 16.3785C4.32529 16.7675 4.49884 17.1421 4.70808 17.4969C5.26269 18.444 6.05467 19.236 7.00185 19.7906C7.94904 20.3453 9.04914 20.6625 10.2246 20.6625C11.4 20.6625 12.5024 20.3453 13.4495 19.7906C14.7612 19.0219 15.7575 17.8129 16.2614 16.3785C16.6749 16.6199 17.0179 16.9655 17.2562 17.3808C17.4944 17.796 17.6197 18.2665 17.6194 18.7453C17.6194 18.8457 17.7016 18.9279 17.802 18.9279H19.0801C19.1806 18.9279 19.2627 18.8457 19.2627 18.7453C19.2627 16.9354 18.1649 15.3811 16.5992 14.7124C16.6083 14.5663 16.6152 14.4202 16.6152 14.2719V12.0808H19.9931C20.0935 12.0808 20.1757 11.9986 20.1757 11.8982V10.6201C20.1757 10.5197 20.0935 10.4375 19.9931 10.4375ZM14.8806 14.2719C14.8806 15.1118 14.6592 15.9152 14.2461 16.6204C13.8421 17.312 13.2647 17.8894 12.5731 18.2934C11.8679 18.7065 11.0645 18.9279 10.2246 18.9279C9.38464 18.9279 8.58125 18.7065 7.876 18.2934C7.18444 17.8894 6.607 17.312 6.20303 16.6204C5.78585 15.9082 5.56678 15.0973 5.56853 14.2719V8.15514H14.8806V14.2719Z" fill="white"/>
</g>
<defs>
<clipPath id="clip0_316_43165">
<rect width="20.45" height="20.45" fill="white" transform="translate(0 0.216667)"/>
</clipPath>
</defs>
</svg>
