<svg width="16" height="16" viewBox="0 0 16 16" fill="none" xmlns="http://www.w3.org/2000/svg">
<path fill-rule="evenodd" clip-rule="evenodd" d="M13.0014 8.00065C13.0014 8.22732 12.9814 8.44065 12.9547 8.65398L14.3614 9.75398C14.488 9.85398 14.5214 10.034 14.4414 10.1807L13.108 12.4873C13.048 12.594 12.9347 12.654 12.8214 12.654C12.7814 12.654 12.7414 12.6473 12.7014 12.634L11.0414 11.9673C10.6947 12.2273 10.3214 12.454 9.91469 12.6207L9.66136 14.3873C9.64136 14.5473 9.50136 14.6673 9.33469 14.6673H6.66802C6.50136 14.6673 6.36136 14.5473 6.34136 14.3873L6.08802 12.6207C5.68136 12.454 5.30802 12.234 4.96136 11.9673L3.30136 12.634C3.26802 12.6473 3.22802 12.654 3.18802 12.654C3.06802 12.654 2.95469 12.594 2.89469 12.4873L1.56136 10.1807C1.48136 10.034 1.51469 9.85398 1.64136 9.75398L3.04802 8.65398C3.02136 8.44065 3.00136 8.22065 3.00136 8.00065C3.00136 7.78065 3.02136 7.56065 3.04802 7.34732L1.64136 6.24732C1.51469 6.14732 1.47469 5.96732 1.56136 5.82065L2.89469 3.51398C2.95469 3.40732 3.06802 3.34732 3.18136 3.34732C3.22136 3.34732 3.26136 3.35398 3.30136 3.36732L4.96136 4.03398C5.30802 3.77398 5.68136 3.54732 6.08802 3.38065L6.34136 1.61398C6.36136 1.45398 6.50136 1.33398 6.66802 1.33398H9.33469C9.50136 1.33398 9.64136 1.45398 9.66136 1.61398L9.91469 3.38065C10.3214 3.54732 10.6947 3.76732 11.0414 4.03398L12.7014 3.36732C12.7347 3.35398 12.7747 3.34732 12.8147 3.34732C12.9347 3.34732 13.048 3.40732 13.108 3.51398L14.4414 5.82065C14.5214 5.96732 14.488 6.14732 14.3614 6.24732L12.9547 7.34732C12.9814 7.56065 13.0014 7.77398 13.0014 8.00065ZM11.668 8.00065C11.668 7.86065 11.6614 7.72065 11.6347 7.51398L11.5414 6.76065L12.1347 6.29398L12.848 5.72732L12.3814 4.92065L11.5347 5.26065L10.828 5.54732L10.2214 5.08065C9.95469 4.88065 9.68802 4.72732 9.40136 4.60732L8.69469 4.32065L8.58802 3.56732L8.46136 2.66732H7.53469L7.40136 3.56732L7.29469 4.32065L6.58802 4.60732C6.31469 4.72065 6.04136 4.88065 5.75469 5.09398L5.15469 5.54732L4.46136 5.26732L3.61469 4.92732L3.14802 5.73398L3.86802 6.29398L4.46136 6.76065L4.36802 7.51398C4.34802 7.71398 4.33469 7.86732 4.33469 8.00065C4.33469 8.13398 4.34802 8.28732 4.36802 8.49398L4.46136 9.24732L3.86802 9.71398L3.14802 10.274L3.61469 11.0807L4.46136 10.7407L5.16802 10.454L5.77469 10.9207C6.04136 11.1207 6.30802 11.274 6.59469 11.394L7.30136 11.6807L7.40802 12.434L7.53469 13.334H8.46802L8.60136 12.434L8.70802 11.6807L9.41469 11.394C9.68802 11.2807 9.96136 11.1207 10.248 10.9073L10.848 10.454L11.5414 10.734L12.388 11.074L12.8547 10.2673L12.1347 9.70732L11.5414 9.24065L11.6347 8.48732C11.6547 8.28732 11.668 8.14065 11.668 8.00065ZM8.00136 5.33398C6.52802 5.33398 5.33469 6.52732 5.33469 8.00065C5.33469 9.47398 6.52802 10.6673 8.00136 10.6673C9.47469 10.6673 10.668 9.47398 10.668 8.00065C10.668 6.52732 9.47469 5.33398 8.00136 5.33398ZM6.66802 8.00065C6.66802 8.73398 7.26802 9.33398 8.00136 9.33398C8.73469 9.33398 9.33469 8.73398 9.33469 8.00065C9.33469 7.26732 8.73469 6.66732 8.00136 6.66732C7.26802 6.66732 6.66802 7.26732 6.66802 8.00065Z" fill="black" fill-opacity="0.8"/>
</svg>
