<svg width="18" height="17" viewBox="0 0 18 17" fill="none" xmlns="http://www.w3.org/2000/svg">
<path fill-rule="evenodd" clip-rule="evenodd" d="M17.5212 4.18128V5.88545H15.817V7.58962H17.5212V9.29378H15.817V10.998H17.5212V12.7021H15.817V14.4063C15.817 15.3436 15.0501 16.1105 14.1128 16.1105H2.18366C1.24637 16.1105 0.479492 15.3436 0.479492 14.4063V2.47712C0.479492 1.53982 1.24637 0.772949 2.18366 0.772949H14.1128C15.0501 0.772949 15.817 1.53982 15.817 2.47712V4.18128H17.5212ZM2.18366 14.4063H14.1128V2.47712H2.18366V14.4063ZM3.88783 9.29378H8.14824V12.7021H3.88783V9.29378ZM12.4087 4.18128H9.00033V6.73753H12.4087V4.18128ZM3.88783 4.18128H8.14824V8.4417H3.88783V4.18128ZM12.4087 7.58962H9.00033V12.7021H12.4087V7.58962Z" fill="white" fill-opacity="0.54"/>
</svg>
