<svg width="14" height="14" viewBox="0 0 14 14" fill="none" xmlns="http://www.w3.org/2000/svg">
<g clip-path="url(#clip0_26_7614)">
<path d="M13.4167 7.00004C13.2741 6.99837 13.1361 7.04993 13.0295 7.14464C12.9229 7.23936 12.8555 7.37042 12.8404 7.51221C12.7443 8.62291 12.3316 9.68272 11.6511 10.5658C10.9706 11.4489 10.0511 12.1182 9.00154 12.4942C7.95201 12.8702 6.81663 12.9371 5.73019 12.6871C4.64376 12.437 3.6519 11.8804 2.87238 11.0834H4.47363C4.62834 11.0834 4.77672 11.0219 4.88611 10.9125C4.99551 10.8031 5.05697 10.6547 5.05697 10.5C5.05697 10.3453 4.99551 10.197 4.88611 10.0876C4.77672 9.97816 4.62834 9.91671 4.47363 9.91671H2.1403C1.83088 9.91671 1.53413 10.0396 1.31534 10.2584C1.09655 10.4772 0.973633 10.774 0.973633 11.0834V13.4167C0.973633 13.5714 1.03509 13.7198 1.14449 13.8292C1.25388 13.9386 1.40226 14 1.55697 14C1.71168 14 1.86005 13.9386 1.96945 13.8292C2.07884 13.7198 2.1403 13.5714 2.1403 13.4167V11.9945C3.08369 12.9232 4.27151 13.5648 5.56542 13.8445C6.85933 14.1242 8.20608 14.0305 9.44882 13.5744C10.6916 13.1183 11.7791 12.3185 12.5849 11.2681C13.3906 10.2178 13.8814 8.96018 14 7.64171C14.0076 7.56047 13.9981 7.47856 13.9722 7.40119C13.9464 7.32382 13.9047 7.25268 13.8498 7.19231C13.7949 7.13195 13.7281 7.08368 13.6535 7.05057C13.5789 7.01747 13.4983 7.00026 13.4167 7.00004Z" fill="#2D7FF9"/>
<path d="M12.4432 0.000193507C12.2884 0.000193507 12.1401 0.0616517 12.0307 0.171048C11.9213 0.280444 11.8598 0.428817 11.8598 0.583527V2.00569C10.9164 1.07702 9.72861 0.435469 8.43469 0.155772C7.14078 -0.123924 5.79404 -0.0302605 4.5513 0.425856C3.30857 0.881972 2.22099 1.68177 1.41523 2.7321C0.609475 3.78242 0.118702 5.04006 6.92972e-05 6.35853C-0.0074654 6.43976 0.0020035 6.52167 0.0278727 6.59904C0.0537418 6.67642 0.095444 6.74755 0.150322 6.80792C0.2052 6.86828 0.272051 6.91656 0.346615 6.94966C0.421179 6.98277 0.501821 6.99998 0.583403 7.00019C0.725979 7.00187 0.864054 6.9503 0.970636 6.85559C1.07722 6.76087 1.14464 6.62981 1.15974 6.48803C1.25578 5.37732 1.66854 4.31751 2.34901 3.43442C3.02947 2.55132 3.94905 1.88204 4.99858 1.50603C6.04811 1.13003 7.18349 1.06309 8.26993 1.31317C9.35636 1.56325 10.3482 2.11984 11.1277 2.91686H9.52649C9.37178 2.91686 9.2234 2.97832 9.11401 3.08771C9.00461 3.19711 8.94315 3.34548 8.94315 3.50019C8.94315 3.6549 9.00461 3.80328 9.11401 3.91267C9.2234 4.02207 9.37178 4.08353 9.52649 4.08353H11.8598C12.1692 4.08353 12.466 3.96061 12.6848 3.74182C12.9036 3.52303 13.0265 3.22628 13.0265 2.91686V0.583527C13.0265 0.428817 12.965 0.280444 12.8556 0.171048C12.7462 0.0616517 12.5979 0.000193507 12.4432 0.000193507Z" fill="#2D7FF9"/>
</g>
<defs>
<clipPath id="clip0_26_7614">
<rect width="14" height="14" fill="white"/>
</clipPath>
</defs>
</svg>
