<svg width="18" height="18" viewBox="0 0 18 18" fill="none" xmlns="http://www.w3.org/2000/svg">
<path fill-rule="evenodd" clip-rule="evenodd" d="M0.479492 9.44173C0.479492 4.73823 4.29683 0.920898 9.00033 0.920898C13.7038 0.920898 17.5212 4.73823 17.5212 9.44173C17.5212 14.1452 13.7038 17.9626 9.00033 17.9626C4.29683 17.9626 0.479492 14.1452 0.479492 9.44173ZM2.18366 9.44173C2.18366 13.1994 5.24264 16.2584 9.00033 16.2584C12.758 16.2584 15.817 13.1994 15.817 9.44173C15.817 5.68404 12.758 2.62507 9.00033 2.62507C5.24264 2.62507 2.18366 5.68404 2.18366 9.44173ZM11.5566 4.75527V6.88548H8.14824V8.58965H11.5566V10.7199L14.5389 7.73757L11.5566 4.75527ZM3.46178 11.1459L6.44408 8.16361V10.2938H9.85241V11.998H6.44408V14.1282L3.46178 11.1459Z" fill="white" fill-opacity="0.54"/>
</svg>
