<svg width="18" height="18" viewBox="0 0 18 18" fill="none" xmlns="http://www.w3.org/2000/svg">
<path fill-rule="evenodd" clip-rule="evenodd" d="M13.525 12.0979V8.55623C13.525 6.38165 12.3705 4.56123 10.3375 4.07957V3.5979C10.3375 3.00998 9.86295 2.5354 9.27503 2.5354C8.68712 2.5354 8.21253 3.00998 8.21253 3.5979V4.07957C6.1867 4.56123 5.02503 6.37457 5.02503 8.55623V12.0979L3.60837 13.5146V14.2229H14.9417V13.5146L13.525 12.0979ZM9.27503 16.3479C10.0542 16.3479 10.6917 15.7104 10.6917 14.9312H7.85837C7.85837 15.7104 8.49587 16.3479 9.27503 16.3479ZM6.4417 12.8062H12.1084V8.55623C12.1084 6.79957 11.0388 5.36873 9.27504 5.36873C7.51129 5.36873 6.4417 6.79957 6.4417 8.55623V12.8062ZM6.1442 3.65457L5.13128 2.64165C3.43128 3.9379 2.31212 5.9354 2.21295 8.20207H3.62962C3.73587 6.32498 4.6992 4.68165 6.1442 3.65457ZM16.3371 8.20207H14.9205C14.8142 6.32498 13.8438 4.68165 12.413 3.65457L13.4188 2.64165C15.1117 3.9379 16.2309 5.9354 16.3371 8.20207Z" fill="white" fill-opacity="0.54"/>
</svg>
