<svg width="16" height="17" viewBox="0 0 16 17" fill="none" xmlns="http://www.w3.org/2000/svg">
<path fill-rule="evenodd" clip-rule="evenodd" d="M8.00065 1.83325C4.32065 1.83325 1.33398 4.81992 1.33398 8.49992C1.33398 12.1799 4.32065 15.1666 8.00065 15.1666C11.6807 15.1666 14.6673 12.1799 14.6673 8.49992C14.6673 4.81992 11.6807 1.83325 8.00065 1.83325ZM7.33398 5.16658V7.83325H4.66732V9.16658H7.33398V11.8333H8.66732V9.16658H11.334V7.83325H8.66732V5.16658H7.33398ZM2.66732 8.49992C2.66732 11.4399 5.06065 13.8333 8.00065 13.8333C10.9407 13.8333 13.334 11.4399 13.334 8.49992C13.334 5.55992 10.9407 3.16659 8.00065 3.16659C5.06065 3.16659 2.66732 5.55992 2.66732 8.49992Z" fill="white"/>
</svg>
