<svg width="16" height="16" viewBox="0 0 16 16" fill="none" xmlns="http://www.w3.org/2000/svg">
<path fill-rule="evenodd" clip-rule="evenodd" d="M11.3337 5.66667H12.0003C12.7337 5.66667 13.3337 6.26667 13.3337 7V13.6667C13.3337 14.4 12.7337 15 12.0003 15H4.00033C3.26699 15 2.66699 14.4 2.66699 13.6667V7C2.66699 6.26667 3.26699 5.66667 4.00033 5.66667H4.66699V4.33333C4.66699 2.49333 6.16033 1 8.00033 1C9.84032 1 11.3337 2.49333 11.3337 4.33333V5.66667ZM8.00033 2.33333C6.89366 2.33333 6.00033 3.22667 6.00033 4.33333V5.66667H10.0003V4.33333C10.0003 3.22667 9.10699 2.33333 8.00033 2.33333ZM4.00033 13.6667V7H12.0003V13.6667H4.00033ZM9.33366 10.3333C9.33366 11.0667 8.73366 11.6667 8.00033 11.6667C7.26699 11.6667 6.66699 11.0667 6.66699 10.3333C6.66699 9.6 7.26699 9 8.00033 9C8.73366 9 9.33366 9.6 9.33366 10.3333Z" fill="black"/>
</svg>
