<svg width="22" height="22" viewBox="0 0 22 22" fill="none" xmlns="http://www.w3.org/2000/svg">
<path fill-rule="evenodd" clip-rule="evenodd" d="M10.9993 7.33341C12.0077 7.33341 12.8327 6.50841 12.8327 5.50008C12.8327 4.49175 12.0077 3.66675 10.9993 3.66675C9.99102 3.66675 9.16602 4.49175 9.16602 5.50008C9.16602 6.50841 9.99102 7.33341 10.9993 7.33341ZM10.9993 9.16675C9.99102 9.16675 9.16602 9.99175 9.16602 11.0001C9.16602 12.0084 9.99102 12.8334 10.9993 12.8334C12.0077 12.8334 12.8327 12.0084 12.8327 11.0001C12.8327 9.99175 12.0077 9.16675 10.9993 9.16675ZM9.16602 16.5001C9.16602 15.4917 9.99102 14.6667 10.9993 14.6667C12.0077 14.6667 12.8327 15.4917 12.8327 16.5001C12.8327 17.5084 12.0077 18.3334 10.9993 18.3334C9.99102 18.3334 9.16602 17.5084 9.16602 16.5001Z" fill="black" fill-opacity="0.54"/>
</svg>
