<svg width="22" height="21" viewBox="0 0 22 21" fill="none" xmlns="http://www.w3.org/2000/svg">
<g clip-path="url(#clip0_187_14402)">
<path d="M11.0002 10.4417C12.0114 10.4417 12.9998 10.1418 13.8405 9.58006C14.6813 9.0183 15.3366 8.21983 15.7235 7.28565C16.1105 6.35146 16.2117 5.32351 16.0145 4.33178C15.8172 3.34005 15.3303 2.42909 14.6153 1.71409C13.9003 0.999098 12.9893 0.512179 11.9976 0.314912C11.0059 0.117645 9.97791 0.21889 9.04373 0.605843C8.10954 0.992796 7.31108 1.64808 6.74931 2.48882C6.18754 3.32957 5.8877 4.31802 5.8877 5.32918C5.88905 6.68468 6.42812 7.98428 7.38661 8.94277C8.34509 9.90125 9.64469 10.4403 11.0002 10.4417ZM11.0002 1.92084C11.6743 1.92084 12.3333 2.12074 12.8938 2.49525C13.4543 2.86976 13.8911 3.40207 14.1491 4.02486C14.4071 4.64766 14.4746 5.33296 14.343 5.99411C14.2115 6.65526 13.8869 7.26257 13.4103 7.73923C12.9336 8.2159 12.3263 8.54051 11.6651 8.67202C11.004 8.80353 10.3187 8.73604 9.69588 8.47807C9.07309 8.2201 8.54078 7.78324 8.16627 7.22275C7.79176 6.66225 7.59186 6.00328 7.59186 5.32918C7.59186 4.42523 7.95095 3.55831 8.59014 2.91912C9.22933 2.27993 10.0962 1.92084 11.0002 1.92084Z" fill="white" fill-opacity="0.54"/>
<path d="M11.0008 12.1458C8.9676 12.1481 7.01833 12.9567 5.58065 14.3944C4.14297 15.8321 3.33429 17.7814 3.33203 19.8146C3.33203 20.0406 3.4218 20.2573 3.5816 20.4171C3.7414 20.5769 3.95813 20.6666 4.18411 20.6666C4.4101 20.6666 4.62683 20.5769 4.78663 20.4171C4.94643 20.2573 5.0362 20.0406 5.0362 19.8146C5.0362 18.2327 5.66461 16.7155 6.78318 15.597C7.90176 14.4784 9.41888 13.85 11.0008 13.85C12.5827 13.85 14.0998 14.4784 15.2184 15.597C16.337 16.7155 16.9654 18.2327 16.9654 19.8146C16.9654 20.0406 17.0551 20.2573 17.2149 20.4171C17.3747 20.5769 17.5915 20.6666 17.8174 20.6666C18.0434 20.6666 18.2602 20.5769 18.42 20.4171C18.5798 20.2573 18.6695 20.0406 18.6695 19.8146C18.6673 17.7814 17.8586 15.8321 16.4209 14.3944C14.9832 12.9567 13.034 12.1481 11.0008 12.1458Z" fill="white" fill-opacity="0.54"/>
</g>
<defs>
<clipPath id="clip0_187_14402">
<rect width="20.45" height="20.45" fill="white" transform="translate(0.775391 0.216675)"/>
</clipPath>
</defs>
</svg>
