<svg width="40" height="40" viewBox="0 0 40 40" fill="none" xmlns="http://www.w3.org/2000/svg">
<g clip-path="url(#clip0_17_12673)">
<path d="M17.8583 29.2857C17.8583 29.854 18.084 30.3991 18.4859 30.8009C18.8878 31.2028 19.4328 31.4286 20.0011 31.4286C20.5695 31.4286 21.1145 31.2028 21.5164 30.8009C21.9182 30.3991 22.144 29.854 22.144 29.2857C22.144 28.7174 21.9182 28.1724 21.5164 27.7705C21.1145 27.3686 20.5695 27.1429 20.0011 27.1429C19.4328 27.1429 18.8878 27.3686 18.4859 27.7705C18.084 28.1724 17.8583 28.7174 17.8583 29.2857ZM18.5726 15.7143V23.9286C18.5726 24.125 18.7333 24.2857 18.9297 24.2857H21.0726C21.269 24.2857 21.4297 24.125 21.4297 23.9286V15.7143C21.4297 15.5179 21.269 15.3571 21.0726 15.3571H18.9297C18.7333 15.3571 18.5726 15.5179 18.5726 15.7143ZM39.8092 35.3571L21.2377 3.21429C20.961 2.73661 20.4833 2.5 20.0011 2.5C19.519 2.5 19.0368 2.73661 18.7645 3.21429L0.193096 35.3571C-0.356012 36.3125 0.331488 37.5 1.4297 37.5H38.5726C39.6708 37.5 40.3583 36.3125 39.8092 35.3571ZM4.83149 34.1116L20.0011 7.85268L35.1708 34.1116H4.83149Z" fill="#FF9F43" fill-opacity="0.85"/>
</g>
<defs>
<clipPath id="clip0_17_12673">
<rect width="40" height="40" fill="white"/>
</clipPath>
</defs>
</svg>
